<svg width="386" height="277" xmlns="http://www.w3.org/2000/svg" xmlns:xlink="http://www.w3.org/1999/xlink"><defs><linearGradient x1="50%" y1="0%" x2="50%" y2="97.503%" id="b"><stop stop-color="#52D057" offset="0%"/><stop stop-color="#5686DC" offset="100%"/></linearGradient><linearGradient x1="50%" y1="0%" x2="50%" y2="100%" id="c"><stop stop-color="#33B64D" offset="0%"/><stop stop-color="#30A7D8" offset="100%"/></linearGradient><linearGradient x1="50%" y1="0%" x2="50%" y2="100%" id="e"><stop stop-color="#33B36C" offset="0%"/><stop stop-color="#208B5D" offset="100%"/></linearGradient><path d="M26.051 135.027h52.104l26.051 45.018H52.104L26.05 135.027 0 90.017l26.052-45.009 26.051 45.01 26.052-45.009h52.103L104.207 0h52.103l26.052 45.009 26.052 45.008H156.31L130.258 45.01 104.206 0l-10.42 18.004L104.206 0H52.103L26.051 45.009l26.052 45.009-5.21 9.001 5.21-9.001 26.052 45.009H26.052zm91.987 21.117l12.22-21.117 26.051 45.017h-52.102l-26.052-45.017h52.103l-12.22 21.117z" id="a"/></defs><g fill="none" fill-rule="evenodd"><path stroke="#CECECE" d="M186.754 220.345l.032.054h-.065l-32.333-55.896-.032-.054.032-.054.033.054z"/><path stroke="#F2F2F2" d="M316.247 108.488l-.033.054-32.333 55.907h-.064l-32.333-55.907-.032-.054h-64.666l32.365-55.95h64.73zM251.354 220.69l32.193 55.66h-64.396m-32.365-56.328l-32.365 55.95-32.365-55.95h-.065l-32.333-55.896.033-.054h64.73l32.333 55.897z"/><path stroke="#F2F2F2" d="M283.817 52.162l-32.333 55.896-.032.054h-64.73l-32.334-55.897.033-.053zm64.73 111.91l-.13.237-.14-.237h-64.46l-32.333-55.907-.032-.053h64.73l.032.053zm-97.031 55.95l-.162.291-32.203 55.66-32.365-55.95h64.396l.14-.237.032-.054.13.237z"/><path stroke="#F2F2F2" d="M219.151 275.972h-64.73l-32.365-55.95 32.332-55.896.033-.054 32.333 55.896.032.054zm32.365-167.86l-.032.053-.032-.053h-64.73l-32.334 55.906-32.332-55.906 32.332-55.897.033-.053h64.73l32.333 55.896z"/><path stroke="#F2F2F2" d="M186.754 219.968l-.033.054h-64.73l-32.333-55.896-.032-.054 32.365-55.96h64.73l-32.333 55.906.033.054z"/><g transform="translate(115 74)"><mask id="d" fill="#fff"><use xlink:href="#a"/></mask><use fill="url(#b)" xlink:href="#a"/><path d="M-88.48 56.847c8.504 4.157 60.88 91.42 130.82 66.69 69.941-24.729 59.062-184.248 204.715-111.27C392.71 85.248 115.482 276.37 115.482 276.37l-246.337-93.022s33.872-130.658 42.376-126.5z" fill="url(#c)" mask="url(#d)"/></g><path fill="url(#e)" d="M91.99 116.224L78.964 93.718 91.99 71.213h26.052l13.026 22.505-13.026 22.506z" transform="translate(115 74)"/><g stroke="#F2F2F2"><path d="M379.471 225.98l-13.387-1.953-.021-.052.057.009 13.33 1.943z"/><path d="M376.29 249.286l-13.33-1.944-.003.001-.055-.01-5.113-12.655 8.24-10.657.001-.001.033-.045.057.009 13.33 1.943 5.113 12.655-.035.046z"/><path d="M362.783 247.759h-.002l-.055-.01-5.092-12.602-13.386-1.952 8.273-10.703 13.331 1.945h.002l.054.007 5.113 12.655zm3.117-23.333l-13.386-1.952-5.092-12.603 13.387 1.952zm18.617 14.174l-13.33-1.945L366.072 224l.036-.044 13.33 1.943 5.113 12.656z"/><path d="M357.648 235.182l-13.386-1.952-5.113-12.656 8.273-10.703 13.387 1.952 5.113 12.655zm21.794-9.273l-13.386-1.952-5.092-12.603 13.387 1.952z"/></g><path stroke="#F2F2F2" d="M9.1 242.017l7.962-13.876h15.925m15.939-.001l-7.962 13.877H25.039"/><g stroke="#F2F2F2"><path d="M25.04 269.769l-7.963-13.876 7.962-13.876h15.925l7.962 13.876"/><path d="M32.987 255.893l-7.963-13.876 7.963-13.876H48.91l7.962 13.876-7.962 13.876z"/><path d="M9.115 269.769l-7.962-13.876 7.962-13.876H25.04l7.963 13.876-7.963 13.876z"/></g><path stroke="#F2F2F2" d="M33.002 228.14l-7.963 13.877H9.115m15.909 0l-7.962 13.876H1.138m15.369-31.912c.366.632.028 1.517-.756 1.977-.784.46-1.716.32-2.082-.311-.365-.63-.027-1.515.757-1.975.784-.46 1.716-.32 2.081.31z"/><path d="M22.271 234.025c.367.632.028 1.517-.756 1.977-.784.46-1.716.32-2.082-.312-.365-.63-.027-1.515.757-1.974.785-.46 1.717-.32 2.081.309z" stroke="#F2F2F2"/><path d="M16.507 223.981l4.723 8.15c.365.63.027 1.515-.757 1.975-.784.46-1.716.32-2.081-.309l-4.723-8.15c.366.632 1.298.771 2.082.311.784-.46 1.122-1.345.756-1.977" fill="#FFF"/><path d="M16.507 223.981l4.723 8.15c.365.63.027 1.515-.757 1.975-.784.46-1.716.32-2.081-.309l-4.723-8.15c.366.632 1.298.771 2.082.311.784-.46 1.122-1.345.756-1.977z" stroke="#F2F2F2"/><path d="M39.676 257.598c-.727-.008-1.308-.754-1.298-1.667.01-.914.607-1.647 1.334-1.639.725.008 1.306.754 1.296 1.668-.01.913-.607 1.646-1.332 1.638" fill="#FFF"/><path d="M39.676 257.598c-.727-.008-1.308-.754-1.298-1.667.01-.914.607-1.647 1.334-1.639.725.008 1.306.754 1.296 1.668-.01.913-.607 1.646-1.332 1.638zm-14.366-.052c-.727-.008-1.308-.755-1.298-1.668.01-.913.607-1.646 1.334-1.638.725.008 1.306.754 1.296 1.668-.01.913-.608 1.646-1.332 1.638z" stroke="#F2F2F2"/><path d="M39.676 257.598l-9.376-.104c-.725-.008-1.306-.755-1.296-1.668.01-.913.608-1.646 1.332-1.638l9.376.104c-.727-.008-1.324.725-1.334 1.639-.01.913.57 1.659 1.298 1.667" fill="#FFF"/><path d="M39.676 257.598l-9.376-.104c-.725-.008-1.306-.755-1.296-1.668.01-.913.608-1.646 1.332-1.638l9.376.104c-.727-.008-1.324.725-1.334 1.639-.01.913.57 1.659 1.298 1.667z" stroke="#F2F2F2"/><g stroke="#EEE"><path d="M84.161 12.241l-6.54 11.242H64.54L58 12.24 64.54 1h13.08z"/><path d="M103.161 23.241L96.65 34.433l-.028.05H83.54L77.027 23.29l-.028-.05.028-.05L83.54 12h13.08l.03.05z"/><path d="M97.133 34.192l-.029.05H84.081l-6.54 11.24L71 34.243l6.512-11.192.028-.05h13.08z"/><path d="M77.564 23.241l-6.54 11.242H58l6.54-11.242L58 12h13.024z"/><path d="M97.133 12.291L90.62 23.483H77.54l-.03-.05L71 12.24 77.54 1l6.54 11.241h13.024z"/><path d="M84.161 34.241l-6.54 11.242H64.54L58 34.24 64.54 23h13.08z"/></g></g></svg>